<svg xmlns="http://www.w3.org/2000/svg" xmlns:xlink="http://www.w3.org/1999/xlink" width="1024" zoomAndPan="magnify" viewBox="0 0 768 576" height="768" preserveAspectRatio="xMidYMid meet" version="1.0"><path fill="#fbceb1" d="M 602.648438 294.285156 C 571.78125 295.503906 523.660156 299.78125 505.917969 298.917969 C 488.171875 298.054688 480.34375 285.765625 463.539062 284.542969 C 434.621094 282.441406 424.097656 291.976562 391.617188 298.535156 C 396.121094 292.839844 400.050781 286.773438 403.414062 280.335938 C 414.636719 258.199219 386.589844 258.722656 377.171875 273.34375 C 376.792969 262.867188 369.652344 253.960938 358.984375 254.710938 C 348.316406 255.464844 337.601562 269.675781 348.523438 287.0625 C 358.121094 302.34375 372.40625 305.136719 382.472656 304.4375 C 374.042969 313.445312 365.125 321.167969 364.191406 321.726562 C 362.683594 322.636719 358.964844 310.421875 354.242188 302.300781 C 343.921875 284.550781 347.367188 283.089844 295.167969 291.382812 C 276.046875 294.417969 241.515625 295.605469 229.75 293.851562 C 208.039062 290.617188 171.4375 278.792969 141.183594 276.964844 C 82.59375 273.429688 42.851562 283.65625 1.445312 292.894531 C 34.515625 294.207031 41.414062 277.769531 119.902344 279.488281 C 198.390625 281.207031 204.382812 298.050781 244.574219 298.179688 C 284.765625 298.308594 319.085938 292.164062 332.757812 290.53125 C 346.433594 288.894531 347.066406 295.636719 351.777344 304.316406 C 356.492188 312.996094 362.554688 326.792969 363.675781 326.8125 C 365.714844 326.847656 382.910156 309.023438 387.347656 303.800781 C 413.457031 299.152344 452.058594 280.101562 472.800781 289.5625 C 484.09375 294.71875 494.832031 302.09375 508.089844 302.882812 C 551.175781 305.441406 659.582031 291.542969 674.492188 290.960938 C 706.503906 289.71875 727.242188 298.164062 759.5625 297.457031 C 743.488281 297.226562 720.878906 290.796875 695.671875 287.773438 C 666.566406 284.285156 633.515625 293.066406 602.648438 294.285156 Z M 371.292969 300.164062 C 360.847656 298.675781 347.046875 285.914062 348.40625 271.917969 C 350.628906 249.097656 378.800781 257.832031 372.554688 281.117188 C 372.152344 282.605469 374.5625 283.769531 375.902344 282.109375 C 377.648438 278.398438 390.378906 266.464844 396.726562 266.949219 C 408.441406 267.839844 395.101562 289.953125 387.015625 299.378906 C 380.824219 300.398438 375.460938 300.757812 371.292969 300.164062 Z M 371.292969 300.164062 " fill-opacity="1" fill-rule="nonzero"/><path fill="#fbceb1" d="M 766.21875 297.125 C 765.441406 297.195312 763.164062 297.375 759.5625 297.457031 C 761.789062 297.5 764.007812 297.390625 766.21875 297.125 Z M 766.21875 297.125 " fill-opacity="1" fill-rule="nonzero"/><path fill="#fbceb1" d="M 766.21875 297.125 C 766.414062 297.105469 766.554688 297.09375 766.554688 297.09375 C 766.445312 297.105469 766.328125 297.109375 766.21875 297.125 Z M 766.21875 297.125 " fill-opacity="1" fill-rule="nonzero"/></svg>